<?xml version="1.0" encoding="UTF-8" standalone="no"?>
<!DOCTYPE svg PUBLIC "-//W3C//DTD SVG 1.1//EN" "http://www.w3.org/Graphics/SVG/1.1/DTD/svg11.dtd">
<svg version="1.1" xmlns="http://www.w3.org/2000/svg" xmlns:xlink="http://www.w3.org/1999/xlink" preserveAspectRatio="xMidYMid meet" viewBox="0 0 100 100" width="150" height="150"><defs><path d="M90 48.73C90 70.8 72.08 88.73 50 88.73C27.92 88.73 10 70.8 10 48.73C10 26.65 27.92 8.73 50 8.73C72.08 8.73 90 26.65 90 48.73Z" id="fNHrc6F00"></path><path d="M68.06 42.25C68.06 45.69 65.26 48.5 61.81 48.5C58.36 48.5 55.56 45.69 55.56 42.25C55.56 38.8 58.36 36 61.81 36C65.26 36 68.06 38.8 68.06 42.25Z" id="b3Nl0q9dwC"></path><path d="M44.44 42.25C44.44 45.69 41.64 48.5 38.19 48.5C34.74 48.5 31.94 45.69 31.94 42.25C31.94 38.8 34.74 36 38.19 36C41.64 36 44.44 38.8 44.44 42.25Z" id="a5dxsKwwB"></path><path d="M66.48 73.94C65.12 63.02 59.63 57.52 50 57.46C40.37 57.4 34.88 62.89 33.52 73.94" id="d4M8SGKdAs"></path></defs><g><g><g><g><use xlink:href="#fNHrc6F00" opacity="1" fill-opacity="0" stroke="#685397" stroke-width="8" stroke-opacity="0.2"></use></g></g><g><use xlink:href="#b3Nl0q9dwC" opacity="1" fill="#685397" fill-opacity="0.2"></use></g><g><use xlink:href="#a5dxsKwwB" opacity="1" fill="#685397" fill-opacity="0.2"></use></g><g><g><use xlink:href="#d4M8SGKdAs" opacity="1" fill-opacity="0" stroke="#685397" stroke-width="5" stroke-opacity="0.2"></use></g></g></g></g></svg>